<svg xmlns="http://www.w3.org/2000/svg" viewBox="0 0 240 240" role="img" aria-label="Sarah Hughes profile image">
  <defs>
    <linearGradient id="bg" x1="35" y1="18" x2="210" y2="226" gradientUnits="userSpaceOnUse">
      <stop stop-color="#eaf3ff"/>
      <stop offset="1" stop-color="#d8f5ed"/>
    </linearGradient>
    <linearGradient id="hair" x1="79" y1="54" x2="164" y2="158" gradientUnits="userSpaceOnUse">
      <stop stop-color="#4c2f24"/>
      <stop offset="1" stop-color="#231713"/>
    </linearGradient>
    <linearGradient id="top" x1="66" y1="158" x2="176" y2="235" gradientUnits="userSpaceOnUse">
      <stop stop-color="#246fe6"/>
      <stop offset="1" stop-color="#78c7b3"/>
    </linearGradient>
  </defs>
  <rect width="240" height="240" rx="120" fill="url(#bg)"/>
  <path d="M72 121c-7-36 5-68 39-75 39-8 67 18 64 59-1 20-8 38-17 52H88c-8-10-14-22-16-36Z" fill="url(#hair)"/>
  <path d="M49 224c7-45 36-70 74-70 39 0 68 25 75 70H49Z" fill="url(#top)"/>
  <path d="M101 144h44v35c0 13-44 13-44 0v-35Z" fill="#d79d78"/>
  <path d="M87 103c0-31 16-51 38-51s38 20 38 51c0 36-17 57-38 57s-38-21-38-57Z" fill="#e8b28e"/>
  <path d="M83 109c-10-4-12 22 2 25l5 1-2-25-5-1Zm83 0c10-4 12 22-2 25l-5 1 2-25 5-1Z" fill="#e8b28e"/>
  <path d="M88 96c22-4 41-14 55-33 12 7 18 20 20 39 5-35-13-58-42-58-28 0-45 21-33 52Z" fill="url(#hair)"/>
  <path d="M105 108c5-5 15-5 20 0m16 0c5-5 15-5 20 0" fill="none" stroke="#3b2a20" stroke-width="5" stroke-linecap="round"/>
  <path d="M125 115c-3 11-5 18-2 23 2 2 6 2 9 1" fill="none" stroke="#b9785d" stroke-width="4" stroke-linecap="round"/>
  <path d="M108 143c12 10 28 10 39 0" fill="none" stroke="#8f493e" stroke-width="5" stroke-linecap="round"/>
  <circle cx="111" cy="116" r="4" fill="#1e293b"/>
  <circle cx="150" cy="116" r="4" fill="#1e293b"/>
  <path d="M71 224c8-29 29-45 54-45s47 16 55 45H71Z" fill="#f7fbff" opacity=".28"/>
</svg>
